<svg id="iconmonstr-bookmark-6" xmlns="http://www.w3.org/2000/svg" width="23.858" height="29.643" viewBox="0 0 23.858 29.643">
  <path id="Tracé_32" data-name="Tracé 32" d="M11.631,0Z" transform="translate(-1.97 0.001)" fill="#fff"/>
  <path id="Tracé_33" data-name="Tracé 33" d="M20.9,21.4h0v0Z" transform="translate(-5.192 -7.334)" fill="#fff"/>
  <path id="Tracé_34" data-name="Tracé 34" d="M25,43.3Z" transform="translate(-6.597 -14.84)" fill="#fff"/>
  <path id="Tracé_35" data-name="Tracé 35" d="M16.463,14.262h0v14.2h0a1.31,1.31,0,0,1-2.3.723h0a23.872,23.872,0,0,1-1.84-1.84c-.394-.46-.92-.92-1.906-1.972A4.367,4.367,0,0,0,9.3,24.581a1.979,1.979,0,0,0-.92-.263,2.029,2.029,0,0,0-.723.131,1.806,1.806,0,0,0-.789.46c-.723.657-1.775,1.775-2.3,2.366a25.052,25.052,0,0,1-2.037,1.906.876.876,0,0,1-.329.2.229.229,0,0,1-.131.066H2a1.919,1.919,0,0,1-.592.131A1.318,1.318,0,0,1,.1,28.262V1.446A1.379,1.379,0,0,1,1.544,0h.066A.834.834,0,0,1,2,.066H2V0H7.656A1.345,1.345,0,0,1,8.839,1.315a1.334,1.334,0,0,1-1.38,1.315H2.792V25.5c1.38-1.117,2.76-2.3,4.075-3.418a1.226,1.226,0,0,1,.263-.2c.066-.066.131-.131.2-.131.066-.066.066-.066.131-.066a.064.064,0,0,0,.066-.066,1.11,1.11,0,0,1,.329-.131h0a1.118,1.118,0,0,1,.46-.066,1.338,1.338,0,0,1,.986.394c1.512,1.249,2.958,2.5,4.469,3.812V14.065h0a1.412,1.412,0,0,1,1.38-1.249A1.393,1.393,0,0,1,16.463,14.262Z" transform="translate(1.94 0.001)" fill="#fff"/>
  <path id="Tracé_36" data-name="Tracé 36" d="M20.678,0A6.1,6.1,0,0,0,14.5,5.849a6.021,6.021,0,0,0,6.178,5.85,6.1,6.1,0,0,0,6.178-5.85A6.021,6.021,0,0,0,20.678,0Zm3.483,6.507H21.4V9.135h-1.38V6.506H17.26V5.192h2.76V2.628H21.4V5.257h2.76Z" transform="translate(-2.998 0.002)" fill="#fff"/>
  <path id="Tracé_37" data-name="Tracé 37" d="M2.826,0h0V.066A1.447,1.447,0,0,0,2.3,0Z" transform="translate(1.183 0.001)" fill="#fff"/>
  <path id="Tracé_38" data-name="Tracé 38" d="M-3,41.4Z" transform="translate(3 -14.189)" fill="#fff"/>
</svg>
