<svg xmlns="http://www.w3.org/2000/svg" width="33.749" height="28.492" viewBox="0 0 33.749 28.492">
  <path id="Icon_awesome-chromecast" data-name="Icon awesome-chromecast" d="M32.161,4.5H4.567A3.122,3.122,0,0,0,1.5,7.67v4.743H4.567V7.67H32.161V29.822H21.436v3.17H32.173a3.122,3.122,0,0,0,3.071-3.17V7.67A3.122,3.122,0,0,0,32.173,4.5ZM1.5,28.212v4.743H6.091a4.67,4.67,0,0,0-4.6-4.743Zm0-6.328v3.168a7.792,7.792,0,0,1,7.666,7.915v.024h3.071A10.9,10.9,0,0,0,1.522,21.91H1.5Zm0-6.327v3.17A14.021,14.021,0,0,1,15.3,32.955v.037h3.071A17.206,17.206,0,0,0,1.5,15.582Z" transform="translate(-1.496 -4.5)" fill="#fff"/>
</svg>
