<svg xmlns="http://www.w3.org/2000/svg" width="38.513" height="35.303" viewBox="0 0 38.513 35.303">
  <path id="iconmonstr-favorite-4" d="M10.077,4.209c5.193,0,7.98,5.6,9.179,8.073,1.2-2.482,3.962-8.057,9.188-8.057,3.3,0,6.858,2.1,6.858,6.711,0,5.523-7.613,12.6-16.047,20.861C10.819,23.531,3.209,16.458,3.209,10.936c0-4.294,3.153-6.728,6.868-6.727Zm0-3.209C4.971,1,0,4.509,0,10.936,0,18.416,8.938,26.064,19.256,36.3c10.318-10.24,19.256-17.887,19.256-25.367,0-6.436-4.97-9.92-10.068-9.92a10.485,10.485,0,0,0-9.188,5.2A10.472,10.472,0,0,0,10.079,1Z" transform="translate(0 -1)" fill="#fff"/>
</svg>
