<svg id="Composant_1_1" data-name="Composant 1 – 1" xmlns="http://www.w3.org/2000/svg" width="25" height="24" viewBox="0 0 25 24">
  <path id="iconmonstr-thumb-1" d="M19.4,20.708c-.81-.062-.733-.812.031-.953,1.269-.234,1.827-.914,1.827-1.543a1.267,1.267,0,0,0-1.1-1.181c-.837-.189-.664-.757.031-.812,1.132-.09,1.688-.764,1.688-1.41a1.289,1.289,0,0,0-1.261-1.22c-.857-.115-.578-.734.031-.922A1.6,1.6,0,0,0,22,11.157c0-.672-.5-1.562-2.271-1.49a12.113,12.113,0,0,1-4.979-.885C15.656,5.125,15.438,0,13.062,0c-1.594,0-1.9,1.807-2.375,3.469C8.969,9.438,5.531,10.531,2,11.072V21c6.688,0,8.5,3,13.505,3,3.2,0,4.852-1.735,4.852-2.666,0-.334-.273-.572-.961-.626Z" transform="translate(21.999 24) rotate(180)" fill="#fff"/>
  <rect id="Rectangle_52" data-name="Rectangle 52" width="4" height="10" transform="translate(21 3)" fill="#fff"/>
</svg>
