<svg xmlns="http://www.w3.org/2000/svg" width="26.501" height="24.293" viewBox="0 0 26.501 24.293">
  <path id="iconmonstr-favorite-4" d="M6.934,3.208c3.573,0,5.491,3.855,6.316,5.555.828-1.708,2.726-5.544,6.323-5.544a4.479,4.479,0,0,1,4.719,4.618c0,3.8-5.238,8.669-11.042,14.355C7.445,16.5,2.208,11.637,2.208,7.837A4.469,4.469,0,0,1,6.934,3.208ZM6.936,1A6.674,6.674,0,0,0,0,7.837c0,5.147,6.15,10.409,13.25,17.455,7.1-7.046,13.25-12.309,13.25-17.455a6.658,6.658,0,0,0-6.928-6.826A7.215,7.215,0,0,0,13.25,4.586,7.206,7.206,0,0,0,6.936,1Z" transform="translate(0 -1)" fill="#171717"/>
</svg>
