<svg xmlns="http://www.w3.org/2000/svg" width="32.435" height="20.773" viewBox="0 0 32.435 20.773">
  <path id="iconmonstr-media-control-55" d="M24.326,8.554V5.721c-1.351,0-4.471-.178-6.09,2.092l-5.7,7.989c-1.372,1.922-4.181,3.138-7.257,3.138H0V17.052H5.279a5.967,5.967,0,0,0,4.838-2.092l5.7-7.989C17.65,4.4,20.783,3.833,24.326,3.833V1l8.109,3.777L24.326,8.554ZM11.537,9.8l1.51-2.117A8.706,8.706,0,0,0,5.279,3.833H0V5.721H5.279c3.881,0,4.925,2.212,6.259,4.083ZM32.435,18l-8.109-3.777v2.833c-5.109,0-5.432-1.169-7.509-4.081l-1.511,2.116c1.38,1.935,2.838,3.853,9.02,3.853v2.833Z" transform="translate(0 -1)" fill="#fff"/>
</svg>
