<svg xmlns="http://www.w3.org/2000/svg" width="34.236" height="17.119" viewBox="0 0 34.236 17.119">
  <path id="iconmonstr-infinity-5" d="M25.678,15.986v7.133H18.545l2.292-2.294C15.982,16.8,12.789,8.853,7.743,8.853c-3.014,0-4.963,2.251-4.963,5.706s1.947,5.706,4.963,5.706c2.374,0,4.08-1.524,5.728-3.412l1.775,2.227c-2.138,2.184-4.351,4.039-7.5,4.039C3.183,23.119,0,19.616,0,14.559S3.183,6,7.743,6c6.9,0,10.471,9.2,15.109,12.812ZM26.491,6c-3.154,0-5.367,1.856-7.505,4.041l1.775,2.227c1.649-1.89,3.355-3.415,5.73-3.415,3.016,0,4.964,2.251,4.964,5.706,0,2.595-1.1,4.511-2.926,5.3v2.994c3.441-.889,5.706-4.036,5.706-8.3C34.237,9.5,31.053,6,26.491,6Z" transform="translate(0 -6)" fill="#fff"/>
</svg>
