<svg xmlns="http://www.w3.org/2000/svg" width="149.007" height="160.441" viewBox="0 0 149.007 160.441">
  <path id="Icon_awesome-user" data-name="Icon awesome-user" d="M74.5,80.22c23.515,0,42.573-17.956,42.573-40.11S98.019,0,74.5,0,31.93,17.956,31.93,40.11,50.988,80.22,74.5,80.22Zm29.8,10.028H98.75a61.137,61.137,0,0,1-48.494,0H44.7C20.023,90.248,0,109.112,0,132.364V145.4c0,8.3,7.151,15.041,15.965,15.041H133.042c8.814,0,15.965-6.737,15.965-15.041V132.364C149.007,109.112,128.984,90.248,104.3,90.248Z" fill="#c2c2c2"/>
</svg>
