<svg xmlns="http://www.w3.org/2000/svg" width="26.265" height="19.277" viewBox="0 0 26.265 19.277">
  <g id="_2177994" data-name="2177994" transform="translate(-92.235)">
    <path id="Tracé_10" data-name="Tracé 10" d="M205.2,75.544a3.925,3.925,0,1,0-2.779-1.147A3.92,3.92,0,0,0,205.2,75.544Zm-.99-4.908a1.4,1.4,0,0,1,1.979,0,1.39,1.39,0,0,1,0,1.968,1.4,1.4,0,0,1-1.979,0,1.39,1.39,0,0,1,0-1.968Zm0,0" transform="translate(-99.829 -61.981)" fill="#171717"/>
    <path id="Tracé_11" data-name="Tracé 11" d="M298.626,55.615a1.266,1.266,0,0,0,1.791,0,7.824,7.824,0,0,0,0-11.08,1.266,1.266,0,1,0-1.789,1.793,5.291,5.291,0,0,1,0,7.494,1.266,1.266,0,0,0,0,1.791Zm0,0" transform="translate(-188.627 -40.439)" fill="#171717"/>
    <path id="Tracé_12" data-name="Tracé 12" d="M146.792,55.614a1.266,1.266,0,1,0,1.789-1.793,5.292,5.292,0,0,1,0-7.494,1.266,1.266,0,1,0-1.789-1.793,7.824,7.824,0,0,0,0,11.08Zm0,0" transform="translate(-47.846 -40.435)" fill="#171717"/>
    <path id="Tracé_17" data-name="Tracé 17" d="M335.66,9.642a10.493,10.493,0,0,1-3.1,7.476,1.266,1.266,0,1,0,1.789,1.793,13.09,13.09,0,0,0,0-18.537,1.266,1.266,0,1,0-1.789,1.793,10.492,10.492,0,0,1,3.1,7.476Zm0,0" transform="translate(-219.692 -0.004)" fill="#171717"/>
    <path id="Tracé_18" data-name="Tracé 18" d="M96.976,19.277a1.266,1.266,0,0,0,.894-2.163,10.558,10.558,0,0,1,0-14.952A1.266,1.266,0,0,0,96.081.37a13.09,13.09,0,0,0,0,18.537,1.263,1.263,0,0,0,.895.37Zm0,0" transform="translate(0 0)" fill="#171717"/>
  </g>
</svg>
