<svg xmlns="http://www.w3.org/2000/svg" viewBox="0 0 32 32"><defs><style>.cls-1{fill:#fcfcfc;}</style></defs><title>Fichier 1</title><g id="Calque_2" data-name="Calque 2"><g id="Calque_1-2" data-name="Calque 1"><g id="logo_dollars" data-name="logo dollars"><g id="Groupe_34" data-name="Groupe 34"><path class="cls-1" d="M16,0A16,16,0,1,0,32,16,16,16,0,0,0,16,0Zm2.08,24.68v2.43H14.69V24.66c-2.17-.47-4-1.86-4.17-4.34H13c.13,1.34,1,2.38,3.37,2.38,2.5,0,3.06-1.24,3.06-2,0-1.06-.57-2.05-3.4-2.73-3.15-.76-5.31-2.06-5.31-4.67,0-2.19,1.76-3.61,4-4.09V6.75h3.39V9.23a4.5,4.5,0,0,1,3.63,4.31h-2.5c-.07-1.42-.81-2.38-2.83-2.38s-3,.86-3,2.1c0,1.07.83,1.76,3.39,2.43s5.32,1.76,5.32,5C22,23,20.29,24.26,18.08,24.68Z"/></g></g></g></g></svg>