<svg xmlns="http://www.w3.org/2000/svg" width="56.679" height="56.679" viewBox="0 0 56.679 56.679">
  <g id="logo_user" data-name="logo user" transform="translate(-73 -8.413)">
    <g id="Tracé_30" data-name="Tracé 30" transform="translate(73 8.413)" fill="#fff">
      <path d="M 28.33939170837402 54.67878341674805 C 24.78271102905273 54.67878341674805 21.33349227905273 53.98265075683594 18.08753204345703 52.60972213745117 C 14.95129203796387 51.28321075439453 12.13424205780029 49.38376235961914 9.714632034301758 46.96415328979492 C 7.295021533966064 44.54454040527344 5.395581722259521 41.72750091552734 4.069061756134033 38.59126281738281 C 2.696131706237793 35.34529113769531 2.000001668930054 31.89607238769531 2.000001668930054 28.33939170837402 C 2.000001668930054 24.78271102905273 2.696131706237793 21.33349227905273 4.069061756134033 18.08753204345703 C 5.395581722259521 14.95129203796387 7.295021533966064 12.13424205780029 9.714632034301758 9.714632034301758 C 12.13424205780029 7.295021533966064 14.95129203796387 5.395581722259521 18.08753204345703 4.069061756134033 C 21.33349227905273 2.696131706237793 24.78271102905273 2.000001668930054 28.33939170837402 2.000001668930054 C 31.89607238769531 2.000001668930054 35.34529113769531 2.696131706237793 38.59126281738281 4.069061756134033 C 41.72750091552734 5.395581722259521 44.54454040527344 7.295021533966064 46.96415328979492 9.714632034301758 C 49.38376235961914 12.13424205780029 51.28321075439453 14.95129203796387 52.60972213745117 18.08753204345703 C 53.98265075683594 21.33349227905273 54.67878341674805 24.78271102905273 54.67878341674805 28.33939170837402 C 54.67878341674805 31.89607238769531 53.98265075683594 35.34530258178711 52.60972213745117 38.59126281738281 C 51.28321075439453 41.72750091552734 49.38376235961914 44.54455184936523 46.96415328979492 46.96415328979492 C 44.54455184936523 49.38376235961914 41.72750091552734 51.28321075439453 38.59126281738281 52.60972213745117 C 35.34530258178711 53.98265075683594 31.89607238769531 54.67878341674805 28.33939170837402 54.67878341674805 Z" stroke="none"/>
      <path d="M 28.33939170837402 4.000003814697266 C 25.05183601379395 4.000003814697266 21.8647346496582 4.642982482910156 18.86663436889648 5.911067962646484 C 15.96879196166992 7.136756896972656 13.36542510986328 8.892269134521484 11.12884902954102 11.12884902954102 C 8.892269134521484 13.36542510986328 7.136756896972656 15.96879196166992 5.911067962646484 18.86663436889648 C 4.642982482910156 21.8647346496582 4.000003814697266 25.05183601379395 4.000003814697266 28.33939170837402 C 4.000003814697266 31.6269474029541 4.642982482910156 34.81404876708984 5.911067962646484 37.81214904785156 C 7.136756896972656 40.70999145507813 8.892269134521484 43.31335830688477 11.12884902954102 45.54993438720703 C 13.36542510986328 47.78651428222656 15.96879196166992 49.54202651977539 18.86663436889648 50.76771545410156 C 21.8647346496582 52.03580474853516 25.05183601379395 52.67877960205078 28.33939170837402 52.67877960205078 C 31.6269474029541 52.67877960205078 34.81404876708984 52.03580474853516 37.81214904785156 50.76771545410156 C 40.70999145507813 49.54202651977539 43.31335830688477 47.78651428222656 45.54993438720703 45.54993438720703 C 47.78651428222656 43.31335830688477 49.54202651977539 40.70999145507813 50.76771545410156 37.81214904785156 C 52.03580474853516 34.81404876708984 52.67877960205078 31.6269474029541 52.67877960205078 28.33939170837402 C 52.67877960205078 25.05183601379395 52.03580474853516 21.8647346496582 50.76771545410156 18.86663436889648 C 49.54202651977539 15.96879196166992 47.78651428222656 13.36542510986328 45.54993438720703 11.12884902954102 C 43.31335830688477 8.892269134521484 40.70999145507813 7.136756896972656 37.81214904785156 5.911067962646484 C 34.81404876708984 4.642982482910156 31.6269474029541 4.000003814697266 28.33939170837402 4.000003814697266 M 28.33939170837402 3.814697265625e-06 C 43.99080276489258 3.814697265625e-06 56.67877960205078 12.68798065185547 56.67877960205078 28.33939170837402 C 56.67877960205078 43.99080276489258 43.99080276489258 56.67877960205078 28.33939170837402 56.67877960205078 C 12.68798065185547 56.67877960205078 3.814697265625e-06 43.99080276489258 3.814697265625e-06 28.33939170837402 C 3.814697265625e-06 12.68798065185547 12.68798065185547 3.814697265625e-06 28.33939170837402 3.814697265625e-06 Z" stroke="none" fill="#171717"/>
    </g>
    <path id="Icon_awesome-user" data-name="Icon awesome-user" d="M13,14a7.223,7.223,0,0,0,7.429-7A7.223,7.223,0,0,0,13,0,7.223,7.223,0,0,0,5.572,7,7.223,7.223,0,0,0,13,14Zm5.2,1.75h-.969a10.668,10.668,0,0,1-8.462,0H7.8A7.587,7.587,0,0,0,0,23.1v2.275A2.709,2.709,0,0,0,2.786,28H23.215A2.709,2.709,0,0,0,26,25.371V23.1A7.587,7.587,0,0,0,18.2,15.748Z" transform="translate(88.4 22.517)" fill="#171717" stroke="#171717" stroke-width="1"/>
  </g>
</svg>
