<svg xmlns="http://www.w3.org/2000/svg" xmlns:xlink="http://www.w3.org/1999/xlink" width="226.24" height="63" viewBox="0 0 226.24 63">
  <defs>
    <linearGradient id="linear-gradient" y1="0.5" x2="1" y2="0.5" gradientUnits="objectBoundingBox">
      <stop offset="0" stop-color="#375df0"/>
      <stop offset="0.22" stop-color="#4745e4"/>
      <stop offset="0.53" stop-color="#5a28d6"/>
      <stop offset="0.8" stop-color="#6617ce"/>
      <stop offset="0.99" stop-color="#6a11cb"/>
    </linearGradient>
  </defs>
  <g id="Logo" transform="translate(-20.76 -17.588)">
    <g id="Calque_2" data-name="Calque 2" transform="translate(20.76 23.965)">
      <g id="Layer_1" data-name="Layer 1">
        <path id="Tracé_1" data-name="Tracé 1" d="M189.375,138.974h-.463a1.3,1.3,0,1,1,0-2.6h.4a1.5,1.5,0,0,0-.338.253,1.477,1.477,0,0,0-.421,1.248A1.516,1.516,0,0,0,189.375,138.974Z" transform="translate(-168.819 -122.711)" fill="#999"/>
        <path id="Tracé_2" data-name="Tracé 2" d="M189.452,189.2h-.54a1.3,1.3,0,1,1,0-2.6h.354a1.486,1.486,0,0,0-.7,1.467A1.529,1.529,0,0,0,189.452,189.2Z" transform="translate(-168.819 -167.91)" fill="#999"/>
        <path id="Tracé_3" data-name="Tracé 3" d="M189.379,236.464h-.467a1.3,1.3,0,0,1,0-2.6h.416a1.487,1.487,0,0,0-.761,1.5A1.511,1.511,0,0,0,189.379,236.464Z" transform="translate(-168.819 -210.437)" fill="#999"/>
        <path id="Tracé_4" data-name="Tracé 4" d="M36.458,14.5v9.758a14.5,14.5,0,0,1-14.5,14.5H19.064V31.69A6.167,6.167,0,0,0,24,26.319c.005-.037.009-.075.011-.113.006-.059.01-.117.014-.177H20.56a1.511,1.511,0,0,1-.812-1.1,1.487,1.487,0,0,1,.761-1.5h3.53v-2.13H20.633a1.522,1.522,0,0,1-.885-1.137,1.486,1.486,0,0,1,.7-1.467h3.59V16.263H20.553a1.516,1.516,0,0,1-.815-1.1,1.477,1.477,0,0,1,.421-1.248,1.5,1.5,0,0,1,.338-.253h3.543q0-.09-.006-.18a6.164,6.164,0,0,0-6.156-5.867H16.412a6.164,6.164,0,0,0-6.164,6.051h3.906A1.343,1.343,0,0,1,15.5,14.969a1.3,1.3,0,0,1-1.3,1.3H10.247v2.421H14.2a1.3,1.3,0,1,1,0,2.6H10.247v2.136H14.2a1.3,1.3,0,1,1,0,2.6H10.258A6.17,6.17,0,0,0,15.282,31.7h0V39.5h.01V43a8.327,8.327,0,0,1-8.329,8.327H0V0H21.958a14.5,14.5,0,0,1,14.5,14.5Z" fill="url(#linear-gradient)"/>
        <path id="Tracé_5" data-name="Tracé 5" d="M107.185,77.36a6.582,6.582,0,0,0-3.094,5.465v.447H102.32a6.166,6.166,0,0,1,4.865-5.911Z" transform="translate(-92.072 -69.612)" fill="#999"/>
        <path id="Tracé_6" data-name="Tracé 6" d="M107.444,265.533a6.17,6.17,0,0,1-5.024-5.673h1.755c0,.134,0,.266.012.4A6.584,6.584,0,0,0,107.444,265.533Z" transform="translate(-92.162 -233.833)" fill="#999"/>
        <rect id="Rectangle_11" data-name="Rectangle 11" width="1.766" height="2.421" transform="translate(10.247 16.263)" fill="#999"/>
        <rect id="Rectangle_12" data-name="Rectangle 12" width="1.766" height="2.136" transform="translate(10.247 21.287)" fill="#999"/>
      </g>
    </g>
    <text id="Podkast" transform="translate(71 68.588)" fill="#000c3b" font-size="47" font-family="SegoeUI-Bold, Segoe UI" font-weight="700"><tspan x="0" y="0">Podkast</tspan></text>
  </g>
</svg>
