<svg xmlns="http://www.w3.org/2000/svg" width="397" height="357.839" viewBox="0 0 397 357.839">
  <g id="cardre_notification" data-name="cardre notification" transform="translate(0 13.198)" fill="#fff">
    <path d="M 396.5 344.1404418945313 L 0.5 344.1404418945313 L 0.5 -3.225345849990845 L 352.5234375 -3.225345849990845 L 352.7184143066406 -3.225345849990845 L 352.8619079589844 -3.357295989990234 C 352.8864135742188 -3.379845857620239 355.3420104980469 -5.636995792388916 357.9192504882813 -7.917396068572998 C 362.1663818359375 -11.67542266845703 363.349609375 -12.49506092071533 363.6738586425781 -12.6697473526001 C 363.9981079101563 -12.49503421783447 365.1815185546875 -11.67523384094238 369.429443359375 -7.916495800018311 C 372.006591796875 -5.636096000671387 374.4613037109375 -3.379845857620239 374.4858093261719 -3.357295989990234 L 374.6293029785156 -3.225345849990845 L 374.8242492675781 -3.225345849990845 L 396.5 -3.225345849990845 L 396.5 344.1404418945313 Z" stroke="none"/>
    <path d="M 363.673828125 -12.07992553710938 C 363.1451416015625 -11.72006225585938 361.75244140625 -10.64492797851563 358.1341552734375 -7.439910888671875 C 355.604248046875 -5.198883056640625 353.2240905761719 -3.011138916015625 353.2003479003906 -2.989288330078125 L 352.9133605957031 -2.72540283203125 L 352.5234375 -2.72540283203125 L 1 -2.72540283203125 L 1 343.6404418945313 L 396 343.6404418945313 L 396 -2.72540283203125 L 374.8241882324219 -2.72540283203125 L 374.4342956542969 -2.72540283203125 L 374.1473083496094 -2.989288330078125 C 374.12353515625 -3.011138916015625 371.743408203125 -5.198883056640625 369.2134399414063 -7.439910888671875 C 365.5951843261719 -10.64492797851563 364.2025146484375 -11.72006225585938 363.673828125 -12.07992553710938 M 363.6737976074219 -13.19833374023438 C 364.52294921875 -13.19833374023438 374.8241882324219 -3.72540283203125 374.8241882324219 -3.72540283203125 L 397 -3.72540283203125 L 397 344.6404418945313 L 0 344.6404418945313 L 0 -3.72540283203125 L 352.5234375 -3.72540283203125 C 352.5234375 -3.72540283203125 362.82470703125 -13.19833374023438 363.6737976074219 -13.19833374023438 Z" stroke="none" fill="#707070"/>
  </g>
</svg>
