<svg xmlns="http://www.w3.org/2000/svg" width="24.775" height="24.354" viewBox="0 0 24.775 24.354">
  <g id="ab6b0db851a2100e23ce1bc28563f831" transform="translate(-10.003 -18.32)">
    <g id="Groupe_1" data-name="Groupe 1" transform="translate(10.003 18.32)">
      <path id="Tracé_19" data-name="Tracé 19" d="M355.6-475.27v9.414l-.277-.1a8.464,8.464,0,0,0-6.056.306,3.442,3.442,0,0,0-1.64,1.495,1.293,1.293,0,0,0-.155.8,1.322,1.322,0,0,0,.16.815c1.058,2.145,5.542,2.921,8.458,1.465a3.078,3.078,0,0,0,1.689-1.713c.1-.3.1-.335.1-7.532,0-3.974.015-7.231.039-7.231a13.373,13.373,0,0,1,1.592,1.344,8.321,8.321,0,0,1,2.446,4.188,6.769,6.769,0,0,1-.849,4.62,1.2,1.2,0,0,0-.155.31,13.042,13.042,0,0,0,1.208-1.393,7.625,7.625,0,0,0,1.5-3.29,6.619,6.619,0,0,0-.286-2.892,11.858,11.858,0,0,0-1.213-2.354,34.5,34.5,0,0,0-3.553-4.294c-1.708-1.873-2-2.2-2.519-2.829-.252-.3-.466-.544-.476-.544S355.6-480.444,355.6-475.27Z" transform="translate(-338.939 484.68)" fill="#171717"/>
      <path id="Tracé_20" data-name="Tracé 20" d="M10.624-288.67a1.293,1.293,0,0,0-.548.568,1.118,1.118,0,0,0,.34,1.262,1.062,1.062,0,0,0,1.393-.092.975.975,0,0,0,.286-.854.964.964,0,0,0-.456-.8A1.41,1.41,0,0,0,10.624-288.67Z" transform="translate(-10.003 293.682)" fill="#171717"/>
      <path id="Tracé_21" data-name="Tracé 21" d="M146.087-279.2a.951.951,0,0,0-.48.582.813.813,0,0,0,.485.883,37.971,37.971,0,0,0,4.324.068h4.164l.194-.111a.908.908,0,0,0,.413-.689.859.859,0,0,0-.437-.694l-.214-.107h-4.154A42.705,42.705,0,0,0,146.087-279.2Z" transform="translate(-142.166 284.463)" fill="#171717"/>
      <path id="Tracé_22" data-name="Tracé 22" d="M10.857-140.3a1.079,1.079,0,0,0-.791,1.252,1.031,1.031,0,0,0,1.034.84,1.041,1.041,0,0,0,.961-.6,1.174,1.174,0,0,0-.073-1.039A1.128,1.128,0,0,0,10.857-140.3Z" transform="translate(-10.047 149.026)" fill="#171717"/>
      <path id="Tracé_23" data-name="Tracé 23" d="M146.325-129.056a.793.793,0,0,0-.189,1.233c.257.281.078.272,4.581.272h4.144l.209-.111a.864.864,0,0,0,.437-.684.953.953,0,0,0-.345-.665l-.165-.117-4.246-.01C146.631-129.148,146.5-129.148,146.325-129.056Z" transform="translate(-142.487 138.131)" fill="#171717"/>
      <path id="Tracé_24" data-name="Tracé 24" d="M10.74,9.105a1.074,1.074,0,0,0-.364,1.791,1.061,1.061,0,0,0,1.674-.32,1.156,1.156,0,0,0-.083-1.058A1.111,1.111,0,0,0,10.74,9.105Z" transform="translate(-10.037 3.43)" fill="#171717"/>
      <path id="Tracé_25" data-name="Tracé 25" d="M146.294,20.254a.791.791,0,0,0,.058,1.427c.189.087.413.092,4.275.092,2.528,0,4.139-.019,4.241-.049a.946.946,0,0,0,.544-.524.842.842,0,0,0-.131-.723c-.247-.325.029-.306-4.615-.306C146.881,20.171,146.44,20.181,146.294,20.254Z" transform="translate(-142.436 -7.408)" fill="#171717"/>
    </g>
  </g>
</svg>
