<svg id="Composant_3_1" data-name="Composant 3 – 1" xmlns="http://www.w3.org/2000/svg" width="34.385" height="34.385" viewBox="0 0 34.385 34.385">
  <path id="Icon_material-check-box-outline-blank" data-name="Icon material-check-box-outline-blank" d="M35.064,8.321V35.064H8.321V8.321H35.064m0-3.821H8.321A3.832,3.832,0,0,0,4.5,8.321V35.064a3.832,3.832,0,0,0,3.821,3.821H35.064a3.832,3.832,0,0,0,3.821-3.821V8.321A3.832,3.832,0,0,0,35.064,4.5Z" transform="translate(-4.5 -4.5)" fill="#171717"/>
  <path id="Icon_material-check-box" data-name="Icon material-check-box" d="M30.71,4.5H7.776A3.258,3.258,0,0,0,4.5,7.741v22.69a3.258,3.258,0,0,0,3.276,3.241H30.71a3.258,3.258,0,0,0,3.276-3.241V7.741A3.258,3.258,0,0,0,30.71,4.5ZM15.967,27.19l-8.191-8.1,2.31-2.285,5.881,5.8L28.4,10.3l2.31,2.3Z" transform="translate(-1.943 -1.821)" fill="#6200eb"/>
</svg>
