<svg xmlns="http://www.w3.org/2000/svg" width="33.598" height="29.067" viewBox="0 0 33.598 29.067">
  <path id="Icon_awesome-volume-up" data-name="Icon awesome-volume-up" d="M12.543,4.458,7.353,9.844H1.4A1.427,1.427,0,0,0,0,11.3v8.72a1.427,1.427,0,0,0,1.4,1.453H7.353l5.19,5.386a1.4,1.4,0,0,0,2.39-1.028V5.486A1.4,1.4,0,0,0,12.543,4.458ZM26.152,1.365a1.38,1.38,0,0,0-1.955.421A1.5,1.5,0,0,0,24.6,3.815a14.275,14.275,0,0,1,6.172,11.843A14.275,14.275,0,0,1,24.6,27.5a1.5,1.5,0,0,0-.405,2.029,1.382,1.382,0,0,0,1.955.421A17.231,17.231,0,0,0,33.6,15.658,17.23,17.23,0,0,0,26.152,1.365ZM28,15.658A11.288,11.288,0,0,0,23,6.2a1.364,1.364,0,0,0-1.932.452,1.5,1.5,0,0,0,.432,2.02,8.447,8.447,0,0,1,0,13.978,1.5,1.5,0,0,0-.432,2.02A1.367,1.367,0,0,0,23,25.118,11.287,11.287,0,0,0,28,15.658ZM19.729,11a1.378,1.378,0,0,0-1.9.572,1.484,1.484,0,0,0,.551,1.975,2.43,2.43,0,0,1,0,4.216,1.484,1.484,0,0,0-.551,1.975,1.375,1.375,0,0,0,1.9.572,5.392,5.392,0,0,0,0-9.309Z" transform="translate(0 -1.125)" fill="#fff"/>
</svg>
