<svg xmlns="http://www.w3.org/2000/svg" width="624.24" height="173" viewBox="0 0 624.24 173">
  <g id="Logo" transform="translate(-648.76 -32)">
    <g id="Logo-2" data-name="Logo" transform="translate(648.76 48.148)">
      <path id="Tracé_5" data-name="Tracé 5" d="M115.562,77.36a17.918,17.918,0,0,0-8.422,14.875v1.216h-4.82A16.783,16.783,0,0,1,115.562,77.36Z" transform="translate(-74.424 -56.269)" fill="#c2c2c2"/>
      <path id="Tracé_6" data-name="Tracé 6" d="M116.1,275.3A16.794,16.794,0,0,1,102.42,259.86H107.2c0,.365,0,.725.033,1.091A17.923,17.923,0,0,0,116.1,275.3Z" transform="translate(-74.497 -189.013)" fill="#c2c2c2"/>
      <rect id="Rectangle_11" data-name="Rectangle 11" width="4.807" height="6.59" transform="translate(27.893 44.268)" fill="#c2c2c2"/>
      <rect id="Rectangle_12" data-name="Rectangle 12" width="4.807" height="5.815" transform="translate(27.893 57.943)" fill="#c2c2c2"/>
      <g id="Layer_1" data-name="Layer 1">
        <path id="Tracé_1" data-name="Tracé 1" d="M192.414,143.459h-1.26a3.544,3.544,0,1,1,0-7.089h1.091a4.09,4.09,0,0,0-.919.69,4.021,4.021,0,0,0-1.145,3.4A4.128,4.128,0,0,0,192.414,143.459Z" transform="translate(-136.461 -99.191)" fill="#c2c2c2"/>
        <path id="Tracé_2" data-name="Tracé 2" d="M192.624,193.689h-1.47a3.544,3.544,0,1,1,0-7.089h.962a4.046,4.046,0,0,0-1.908,3.994A4.163,4.163,0,0,0,192.624,193.689Z" transform="translate(-136.461 -135.726)" fill="#c2c2c2"/>
        <path id="Tracé_3" data-name="Tracé 3" d="M192.425,240.949h-1.271a3.544,3.544,0,0,1,0-7.089h1.131a4.049,4.049,0,0,0-2.072,4.09A4.114,4.114,0,0,0,192.425,240.949Z" transform="translate(-136.461 -170.101)" fill="#c2c2c2"/>
        <path id="Tracé_4" data-name="Tracé 4" d="M99.24,39.472V66.035A39.473,39.473,0,0,1,59.767,105.51H51.894V86.262A16.786,16.786,0,0,0,65.34,71.641c.014-.1.025-.2.03-.308.016-.161.027-.319.038-.483H55.964a4.114,4.114,0,0,1-2.211-3,4.049,4.049,0,0,1,2.072-4.09h9.608v-5.8h-9.27a4.144,4.144,0,0,1-2.41-3.094,4.046,4.046,0,0,1,1.908-3.994h9.771V44.268H55.945a4.128,4.128,0,0,1-2.219-3,4.021,4.021,0,0,1,1.145-3.4,4.09,4.09,0,0,1,.919-.69h9.643q0-.245-.016-.491A16.778,16.778,0,0,0,48.66,20.72H44.674A16.779,16.779,0,0,0,27.9,37.19l10.633,0a3.655,3.655,0,0,1,3.664,3.558,3.544,3.544,0,0,1-3.544,3.528H27.893v6.59h10.75a3.544,3.544,0,1,1,0,7.089H27.893v5.815h10.75a3.544,3.544,0,1,1,0,7.089H27.923A16.794,16.794,0,0,0,41.6,86.3h0v21.211h.027v9.542a22.667,22.667,0,0,1-22.672,22.667H0V0H59.77A39.472,39.472,0,0,1,99.24,39.47Z" fill="#fff"/>
      </g>
    </g>
    <text id="Podkast" transform="translate(786 172)" fill="#fff" font-size="130" font-family="SegoeUI-Bold, Segoe UI" font-weight="700"><tspan x="0" y="0">Podkast</tspan></text>
  </g>
</svg>
